<?xml version="1.0" standalone="no"?>
<!DOCTYPE svg PUBLIC "-//W3C//DTD SVG 1.1//EN" "http://www.w3.org/Graphics/SVG/1.1/DTD/svg11.dtd" >
<svg xmlns="http://www.w3.org/2000/svg" xmlns:xlink="http://www.w3.org/1999/xlink" version="1.1">
<metadata>
Created by FontForge 20160407 at Tue Oct 25 17:28:50 2016
 By Jimmy Wärting
Copyright (c) 2012 by Fontfabric LLC. All rights reserved.
</metadata>
<defs>
<font id="RexBold" horiz-adv-x="509" >
  <font-face 
    font-family="Rex Bold "
    font-weight="700"
    font-stretch="normal"
    units-per-em="1000"
    panose-1="2 0 0 0 0 0 0 0 0 0"
    ascent="750"
    descent="-250"
    x-height="749"
    cap-height="748"
    bbox="-25 -247 690 994"
    underline-thickness="50"
    underline-position="-100"
    stemh="87"
    stemv="91"
    unicode-range="U+0020-0491"
  />
<missing-glyph horiz-adv-x="200" 
 />
    <glyph glyph-name=".notdef" horiz-adv-x="200" 
 />
    <glyph glyph-name="Y" unicode="Y" horiz-adv-x="495" 
d="M247 387h6l61 201l57 162h96l-172 -472v-278h-91v278l-131 361l32 19v7h-99v85h124l58 -164z" />
    <glyph glyph-name="X" unicode="X" horiz-adv-x="451" 
d="M347 0l-118 357h-4l-120 -357h-96l144 409l-79 227l31 21v7h-95v85h121l94 -287h4l93 287h95l-115 -340l141 -409h-96z" />
    <glyph glyph-name="W" unicode="W" horiz-adv-x="697" 
d="M157 749l53 -670h10l91 598h103l91 -598h9l53 670h93l-70 -753h-159l-27 165l-39 343h-4l-39 -341l-27 -167h-163l-57 639l34 21v7h-91v86h139z" />
    <glyph glyph-name="V" unicode="V" horiz-adv-x="495" 
d="M466 750l-114 -754h-178l-94 638l34 23v6h-93v87h134l98 -667h21l100 667h92z" />
    <glyph glyph-name="U" unicode="U" horiz-adv-x="505" 
d="M26 750h145v-600l57 -63h60l57 63v600h91v-634l-107 -120h-141l-108 120v521l38 23v7h-92v83z" />
    <glyph glyph-name="T" unicode="T" horiz-adv-x="460" 
d="M180 0v668h-81l-4 -79h-74v161h411v-161h-75l-3 79h-83v-668h-91z" />
    <glyph glyph-name="S" unicode="S" horiz-adv-x="483" 
d="M149 248v-101l59 -62h66l59 62v119l-269 188v188l107 112h140l107 -112v-115h-90v78l-56 59h-63l-55 -59v-104l268 -188v-202l-110 -116h-143l-110 116v137h90z" />
    <glyph glyph-name="R" unicode="R" horiz-adv-x="483" 
d="M170 657v-314h91l62 67v186l-61 61h-92zM170 252v-252h-91v627l38 23v7h-93v92h275l115 -116v-259l-81 -87l133 -287h-100l-117 252h-79z" />
    <glyph glyph-name="Q" unicode="Q" horiz-adv-x="516" 
d="M367 35l52 -87l-71 -47l-59 96h-105l-114 122v523l114 115h146l116 -115v-523zM291 88l62 67v450l-62 61h-69l-61 -61v-450l61 -67h69z" />
    <glyph glyph-name="P" unicode="P" horiz-adv-x="490" 
d="M170 337h106l62 66v194l-61 61h-107v-321zM314 749l116 -114v-268l-115 -121h-145v-246h-91v631l38 23v7h-92v88h289z" />
    <glyph glyph-name="O" unicode="O" 
d="M439 646v-529l-113 -120h-144l-112 120v529l113 113h143zM287 87l61 65v457l-60 60h-68l-60 -60v-457l61 -65h66z" />
    <glyph glyph-name="N" unicode="N" horiz-adv-x="512" 
d="M26 657v90h177l85 -268l82 -313h3l-20 318v263h89v-747h-97l-117 368l-68 245h-3l12 -253v-360h-89v627l38 23v7h-92z" />
    <glyph glyph-name="M" unicode="M" horiz-adv-x="650" 
d="M492 1v659h-13l-90 -591h-115l-93 591h-13v-659h-89v630l36 22v7h-90v89h235l43 -293l26 -265h3l25 261l43 297h181v-748h-89z" />
    <glyph glyph-name="L" unicode="L" horiz-adv-x="451" 
d="M25 749h145v-662h159v80h91v-167h-341v628l38 23v7h-92v91z" />
    <glyph glyph-name="K" unicode="K" horiz-adv-x="491" 
d="M170 747v-301h48l143 301h100l-164 -347l187 -400h-100l-166 355h-48v-355h-91v626l38 23v7h-92v91h145z" />
    <glyph glyph-name="J" unicode="J" horiz-adv-x="456" 
d="M126 276v-127l55 -65h58l55 65v486l38 23v7h-226v83h280v-633l-99 -115h-153l-99 115v161h91z" />
    <glyph glyph-name="I" unicode="I" horiz-adv-x="308" 
d="M281 0h-253v83h81v554l38 23v7h-111v83h234v-83h-70v-584h81v-83z" />
    <glyph glyph-name="H" unicode="H" horiz-adv-x="501" 
d="M27 656v91h144v-330h169v330h91v-747h-91v330h-169v-330h-91v627l37 22v7h-90z" />
    <glyph glyph-name="G" unicode="G" horiz-adv-x="515" 
d="M354 500v99l-60 61h-72l-60 -61v-446l61 -66h70l61 66v164h-96v90h187v-290l-110 -117h-154l-110 117v519l111 111h152l111 -111v-136h-91z" />
    <glyph glyph-name="F" unicode="F" horiz-adv-x="427" 
d="M170 398h168v-91h-168v-307h-91v626l38 23v7h-91v90h359v-176h-89v86h-126v-258z" />
    <glyph glyph-name="E" unicode="E" horiz-adv-x="456" 
d="M170 416h169v-91h-169v-234h134v77h91v-168h-316v628l38 23v7h-91v91h360v-177h-91v86h-125v-242z" />
    <glyph glyph-name="D" unicode="D" horiz-adv-x="499" 
d="M170 91h110l59 59v448l-59 58h-110v-565zM117 656h-92v91h293l112 -112v-522l-112 -113h-239v626l38 23v7z" />
    <glyph glyph-name="C" unicode="C" horiz-adv-x="492" 
d="M339 529v77l-57 59h-65l-56 -59v-456l57 -64h63l58 64v83l91 1v-118l-109 -121h-143l-108 121v526l109 114h142l109 -114v-113h-91z" />
    <glyph glyph-name="B" unicode="B" horiz-adv-x="499" 
d="M172 425h95l53 63v109l-58 58h-90v-230zM172 333v-241h110l58 58v120l-64 63h-104zM27 655v93h273l112 -113v-183l-55 -66l75 -74v-200l-112 -112h-240v625l38 23v7h-91z" />
    <glyph glyph-name="A" unicode="A" horiz-adv-x="460" 
d="M295 286l-56 372h-19l-55 -372h130zM83 658v91h235l111 -749h-92l-29 195h-156l-29 -195h-92l92 628l38 23v7h-78z" />
    <glyph glyph-name="question" unicode="?" horiz-adv-x="431" 
d="M34 518v119l100 114h152l101 -114v-189l-131 -159v-134h-92v167l131 159v121l-51 58h-68l-51 -58v-84h-91zM261 -3h-101v90h101v-90z" />
    <glyph glyph-name="exclam" unicode="!" horiz-adv-x="231" 
d="M161 753v-598h-92v598h92zM164 -4h-101v90h101v-90z" />
    <glyph glyph-name="comma" unicode="," horiz-adv-x="151" 
d="M77 -119l-73 24l26 103v89h93v-101z" />
    <glyph glyph-name="period" unicode="." horiz-adv-x="145" 
d="M115 93v-93h-90v93h90z" />
    <glyph glyph-name="caron" unicode="&#x2c7;" horiz-adv-x="374" 
d="M111 795l80 -69h5l79 69l46 -53l-98 -89h-60l-99 88z" />
    <glyph glyph-name="ring" unicode="&#x2da;" horiz-adv-x="311" 
d="M256 697v-79l-63 -66h-80l-64 66v79l64 62h79zM192 644v27l-25 24h-27l-27 -24v-27l27 -28h26z" />
    <glyph glyph-name="zero" unicode="0" horiz-adv-x="514" 
d="M444 117l-113 -121h-147l-114 121v521l115 115h145l114 -115v-521zM354 493l-174 -361l43 -46h68l63 67v340zM161 259l174 361l-43 42h-69l-62 -61v-342z" />
    <glyph glyph-name="one" unicode="1" horiz-adv-x="356" 
d="M27 749h196v-665h113v-84h-317v84h113v574h-105v91z" />
    <glyph glyph-name="two" unicode="2" horiz-adv-x="464" 
d="M59 526v113l101 114h137l102 -114v-192l-254 -291v-71h168v79h92v-164h-350v189l252 292v124l-51 57h-54l-52 -57v-79h-91z" />
    <glyph glyph-name="three" unicode="3" horiz-adv-x="473" 
d="M56 586v164h341v-189l-98 -120l107 -121v-205l-108 -115h-142l-108 115v136h91v-100l56 -60h63l57 60v135l-57 64h-76l-29 56l153 187v72h-159v-79h-91z" />
    <glyph glyph-name="four" unicode="4" horiz-adv-x="476" 
d="M289 0v191h-240v134l162 425h171v-468h59v-91h-59v-191h-93zM289 282v381h-14l-134 -354v-27h148z" />
    <glyph glyph-name="five" unicode="5" horiz-adv-x="459" 
d="M374 658h-211l-9 -178h141l103 -121v-246l-103 -115h-139l-104 115v134h91v-99l53 -59h59l53 59v177l-54 65h-195l18 359h297v-91z" />
    <glyph glyph-name="six" unicode="6" horiz-adv-x="496" 
d="M162 439h161l109 -116v-211l-109 -115h-143l-109 115v532l110 109h142l103 -108v-99h-91v62l-51 54h-66l-56 -56v-167zM284 348h-122v-200l56 -60h66l58 60v140z" />
    <glyph glyph-name="seven" unicode="7" horiz-adv-x="409" 
d="M64 -1l207 630v33h-153v-78h-91v166h335v-135l-202 -616h-96z" />
    <glyph glyph-name="eight" unicode="8" horiz-adv-x="499" 
d="M331 605l-55 59h-63l-55 -59v-90l85 -69l88 73v86zM422 641v-159l-107 -88l114 -91v-190l-111 -117h-147l-111 116v192l111 90l-104 84v163l107 114h140zM339 269l-95 75l-92 -75v-120l58 -62h70l59 61v121z" />
    <glyph glyph-name="nine" unicode="9" horiz-adv-x="477" 
d="M320 312h-159l-110 113v212l110 113h140l109 -113v-531l-109 -108h-140l-103 107v99h91v-64l50 -52h65l56 55v169zM199 401h121v200l-57 60h-64l-57 -60v-140z" />
    <glyph glyph-name="grave" unicode="`" horiz-adv-x="288" 
d="M227 696l-6 -54h-60l-110 88l71 78z" />
    <glyph glyph-name="circumflex" unicode="&#x2c6;" horiz-adv-x="342" 
d="M164 707l-86 -59l-45 55l103 81h60l103 -81l-46 -56l-84 60h-5z" />
    <glyph glyph-name="acute" unicode="&#xb4;" horiz-adv-x="314" 
d="M77 636l-6 54l105 112l71 -78l-110 -88h-60z" />
    <glyph glyph-name="tilde" unicode="&#x2dc;" horiz-adv-x="374" 
d="M317 727l-43 -58l-49 40l-95 -44l-78 63l44 57l44 -35l95 43z" />
    <glyph glyph-name="cedilla" unicode="&#xb8;" horiz-adv-x="353" 
d="M152 15h63v-99l-60 -31l-7 -25l16 -24h42l27 45l55 -33l-46 -75h-112l-52 75l24 81l50 26v60z" />
    <glyph glyph-name="space" unicode=" " horiz-adv-x="182" 
 />
    <glyph glyph-name="ampersand" unicode="&#x26;" horiz-adv-x="492" 
d="M320 92v241h-115l-64 -63v-120l58 -58h121zM413 553h-92v44l-48 58h-62l-50 -58v-109l53 -63h243v-92h-45v-333h-251l-112 112v200l81 74l-61 66v183l104 113h138l102 -113v-82z" />
    <glyph glyph-name="a" unicode="a" horiz-adv-x="443" 
d="M21 0l111 749h176l111 -749h-92l-29 195h-156l-29 -195h-92zM285 286l-56 372h-19l-55 -372h130z" />
    <glyph glyph-name="b" unicode="b" horiz-adv-x="499" 
d="M80 0v748h220l112 -113v-183l-55 -66l75 -74v-200l-112 -112h-240zM172 425h95l53 63v109l-58 58h-90v-230zM172 333v-241h110l58 58v120l-64 63h-104z" />
    <glyph glyph-name="c" unicode="c" horiz-adv-x="492" 
d="M339 529v77l-57 59h-65l-56 -59v-456l57 -64h63l58 64v83l91 1v-118l-109 -121h-143l-108 121v526l109 114h142l109 -114v-113h-91z" />
    <glyph glyph-name="d" unicode="d" horiz-adv-x="495" 
d="M166 91h110l59 59v448l-59 58h-110v-565zM75 0v747h239l112 -112v-522l-112 -113h-239z" />
    <glyph glyph-name="e" unicode="e" horiz-adv-x="425" 
d="M165 416h181v-91h-181v-234h230v-91h-321v749h307v-91h-216v-242z" />
    <glyph glyph-name="f" unicode="f" horiz-adv-x="411" 
d="M166 398h180v-91h-180v-307h-91v746h306v-90h-215v-258z" />
    <glyph glyph-name="g" unicode="g" horiz-adv-x="515" 
d="M354 500v99l-60 61h-72l-60 -61v-446l61 -66h70l61 66v164h-101v90h192v-290l-110 -117h-154l-110 117v519l111 111h152l111 -111v-136h-91z" />
    <glyph glyph-name="h" unicode="h" horiz-adv-x="496" 
d="M166 0h-91v747h91v-330h169v330h91v-747h-91v330h-169v-330z" />
    <glyph glyph-name="i" unicode="i" horiz-adv-x="236" 
d="M164 0h-91v750h91v-750z" />
    <glyph glyph-name="j" unicode="j" horiz-adv-x="456" 
d="M126 276v-127l55 -65h58l55 65v599h92v-633l-99 -115h-153l-99 115v161h91z" />
    <glyph glyph-name="k" unicode="k" horiz-adv-x="486" 
d="M165 747v-301h48l143 301h100l-164 -347l187 -400h-100l-166 355h-48v-355h-91v747h91z" />
    <glyph glyph-name="l" unicode="l" horiz-adv-x="412" 
d="M73 749h91v-662h226v-87h-317v749z" />
    <glyph glyph-name="m" unicode="m" horiz-adv-x="644" 
d="M484 1v659h-11l-91 -596h-116l-91 596h-11v-659h-91v748h179l43 -293l28 -261h3l27 257l43 297h179v-748h-91z" />
    <glyph glyph-name="n" unicode="n" horiz-adv-x="504" 
d="M72 0v747h123l85 -268l77 -280h3l-17 285v263h91v-747h-97l-117 368l-65 221h-3l11 -229v-360h-91z" />
    <glyph glyph-name="o" unicode="o" 
d="M439 646v-529l-113 -120h-144l-112 120v529l113 113h143zM287 87l61 65v457l-60 60h-68l-60 -60v-457l61 -65h66z" />
    <glyph glyph-name="p" unicode="p" horiz-adv-x="485" 
d="M309 749l116 -114v-268l-115 -121h-145v-246h-91v749h235zM165 337h106l62 66v194l-61 61h-107v-321z" />
    <glyph glyph-name="q" unicode="q" horiz-adv-x="516" 
d="M367 35l52 -87l-71 -47l-59 96h-105l-114 122v523l114 115h146l116 -115v-523zM291 88l62 67v450l-62 61h-69l-61 -61v-450l61 -67h69z" />
    <glyph glyph-name="r" unicode="r" horiz-adv-x="471" 
d="M164 657v-314h91l62 67v186l-61 61h-92zM164 252v-252h-91v749h220l115 -116v-259l-81 -87l133 -287h-100l-117 252h-79z" />
    <glyph glyph-name="s" unicode="s" horiz-adv-x="483" 
d="M149 248v-101l59 -62h66l59 62v119l-269 188v188l107 112h140l107 -112v-115h-90v78l-56 59h-63l-55 -59v-104l268 -188v-202l-110 -116h-143l-110 116v137h90z" />
    <glyph glyph-name="t" unicode="t" horiz-adv-x="392" 
d="M145 0v668h-132v82h356v-82h-133v-668h-91z" />
    <glyph glyph-name="u" unicode="u" horiz-adv-x="500" 
d="M75 750h91v-600l57 -63h60l57 63v600h91v-634l-107 -120h-141l-108 120v634z" />
    <glyph glyph-name="v" unicode="v" horiz-adv-x="461" 
d="M432 750l-114 -754h-178l-112 754h93l98 -663h21l100 663h92z" />
    <glyph glyph-name="w" unicode="w" horiz-adv-x="669" 
d="M129 749l56 -666h11l85 594h107l87 -594h9l55 666h93l-71 -753h-160l-27 165l-37 341h-4l-37 -339l-26 -167h-163l-70 753h92z" />
    <glyph glyph-name="x" unicode="x" horiz-adv-x="447" 
d="M343 0l-118 357h-4l-120 -357h-96l144 409l-119 340h97l94 -288h4l93 288h95l-115 -340l141 -409h-96z" />
    <glyph glyph-name="y" unicode="y" horiz-adv-x="461" 
d="M275 278v-278h-91v278l-172 472h98l61 -174l59 -192l60 195l61 171h96z" />
    <glyph glyph-name="z" unicode="z" horiz-adv-x="397" 
d="M370 89v-89h-337l-1 150l223 453l1 62h-209v84h300l-1 -154l-223 -457v-49h247z" />
    <glyph glyph-name="questiondown" unicode="&#xbf;" horiz-adv-x="431" 
d="M386 -8v-119l-100 -114h-152l-101 114v189l131 159v134h92v-167l-131 -159v-121l51 -58h68l51 58v84h91zM159 423v90h101v-90h-101z" />
    <glyph glyph-name="exclamdown" unicode="&#xa1;" horiz-adv-x="231" 
d="M62 420v90h99v-90h-99zM65 -247v598h92v-598h-92z" />
    <glyph glyph-name="Scaron" unicode="&#x160;" horiz-adv-x="483" 
d="M149 248v-101l59 -62h66l59 62v119l-269 188v188l107 112h140l107 -112v-115h-90v78l-56 59h-63l-55 -59v-104l268 -188v-202l-110 -116h-143l-110 116v137h90zM159 943l80 -69h5l79 69l46 -53l-98 -89h-60l-99 88z" />
    <glyph glyph-name="OE" unicode="&#x152;" horiz-adv-x="709" 
d="M424 416h168v-91h-168v-242h133v85h91v-168h-466l-112 120v516l113 113h456v-177h-91v94h-124v-250zM333 82v585h-113l-60 -68v-444l61 -73h112z" />
    <glyph glyph-name="scaron" unicode="&#x161;" horiz-adv-x="483" 
d="M149 248v-101l59 -62h66l59 62v119l-269 188v188l107 112h140l107 -112v-115h-90v78l-56 59h-63l-55 -59v-104l268 -188v-202l-110 -116h-143l-110 116v137h90zM159 948l80 -69h5l79 69l46 -53l-98 -89h-60l-99 88z" />
    <glyph glyph-name="oe" unicode="&#x153;" horiz-adv-x="692" 
d="M424 416h166v-91h-166v-242h217v-83h-459l-112 120v516l113 113h445v-83h-204v-250zM333 82v585h-113l-60 -60v-458l61 -67h112z" />
    <glyph glyph-name="dieresis" unicode="&#xa8;" horiz-adv-x="438" 
d="M172 781v-79h-101v79h101zM257 781h100v-79h-100v79z" />
    <glyph glyph-name="Ydieresis" unicode="&#x178;" horiz-adv-x="495" 
d="M247 387h6l61 201l57 162h96l-172 -472v-278h-91v278l-131 361l32 19v7h-99v85h124l58 -164zM206 885v-79h-101v79h101zM291 885h100v-79h-100v79z" />
    <glyph glyph-name="zcaron" unicode="&#x17e;" horiz-adv-x="409" 
d="M382 89v-89h-337l-1 150l223 453l1 62h-209v84h300l-1 -154l-223 -457v-49h247zM134 946l80 -69h5l79 69l46 -53l-98 -89h-60l-99 88z" />
    <glyph glyph-name="Zcaron" unicode="&#x17d;" horiz-adv-x="409" 
d="M382 164v-164h-355l-1 150l244 468l1 47h-147l-6 -87h-82v171h326l-1 -154l-244 -468v-43h176l7 80h82zM132 943l80 -69h5l79 69l46 -53l-98 -89h-60l-99 88z" />
    <glyph glyph-name="Agrave" unicode="&#xc0;" horiz-adv-x="460" 
d="M239 658l56 -372h-130l55 372h19zM83 749v-91h78v-7l-38 -23l-92 -628h92l29 195h156l29 -195h92l-111 749h-235zM279 853l-6 -54h-60l-110 88l71 78z" />
    <glyph glyph-name="Aacute" unicode="&#xc1;" horiz-adv-x="460" 
d="M295 286l-56 372h-19l-55 -372h130zM83 658v91h235l111 -749h-92l-29 195h-156l-29 -195h-92l92 628l38 23v7h-78zM179 799l-6 54l105 112l71 -78l-110 -88h-60z" />
    <glyph glyph-name="Acircumflex" unicode="&#xc2;" horiz-adv-x="460" 
d="M239 658l56 -372h-130l55 372h19zM83 749v-91h78v-7l-38 -23l-92 -628h92l29 195h156l29 -195h92l-111 749h-235zM215 856l-86 -59l-45 55l103 81h60l103 -81l-46 -56l-84 60h-5z" />
    <glyph glyph-name="Atilde" unicode="&#xc3;" horiz-adv-x="460" 
d="M295 286l-56 372h-19l-55 -372h130zM83 658v91h235l111 -749h-92l-29 195h-156l-29 -195h-92l92 628l38 23v7h-78zM345 858l-43 -58l-49 40l-95 -44l-78 63l44 57l44 -35l95 43z" />
    <glyph glyph-name="Adieresis" unicode="&#xc4;" horiz-adv-x="460" 
d="M295 286l-56 372h-19l-55 -372h130zM83 658v91h235l111 -749h-92l-29 195h-156l-29 -195h-92l92 628l38 23v7h-78zM178 876v-79h-101v79h101zM263 876h100v-79h-100v79z" />
    <glyph glyph-name="Aring" unicode="&#xc5;" horiz-adv-x="460" 
d="M295 286l-56 372h-19l-55 -372h130zM83 658v91h235l111 -749h-92l-29 195h-156l-29 -195h-92l92 628l38 23v7h-78zM326 932v-79l-63 -66h-80l-64 66v79l64 62h79zM262 879v27l-25 24h-27l-27 -24v-27l27 -28h26z" />
    <glyph glyph-name="AE" unicode="&#xc6;" horiz-adv-x="700" 
d="M333 658h-13l-113 -372h126v372zM424 416h159v-91h-159v-234h124v77h91v-168h-306v195h-151l-61 -195h-104l202 629l39 22v7h-75v91h447v-177h-91v86h-115v-242z" />
    <glyph glyph-name="ae" unicode="&#xe6;" horiz-adv-x="682" 
d="M424 416h162v-91h-162v-234h202v-91h-293v195h-151l-61 -195h-104l240 749h360v-91h-193v-242zM333 658h-13l-113 -372h126v372z" />
    <glyph glyph-name="Ccedilla" unicode="&#xc7;" horiz-adv-x="492" 
d="M364 -141l-46 -75h-112l-52 75l24 81l50 26v29h-50l-108 121v526l109 114h142l109 -114v-113h-91v77l-57 59h-65l-56 -59v-456l57 -64h63l58 64v83l91 1v-118l-109 -121h-30v-68l-60 -31l-7 -25l16 -24h42l27 45z" />
    <glyph glyph-name="ccedilla" unicode="&#xe7;" horiz-adv-x="492" 
d="M364 -141l-46 -75h-112l-52 75l24 81l50 26v29h-50l-108 121v526l109 114h142l109 -114v-113h-91v77l-57 59h-65l-56 -59v-456l57 -64h63l58 64v83l91 1v-118l-109 -121h-30v-68l-60 -31l-7 -25l16 -24h42l27 45z" />
    <glyph glyph-name="Egrave" unicode="&#xc8;" horiz-adv-x="456" 
d="M339 416h-169v242h125v-86h91v177h-360v-91h91v-7l-38 -23v-628h316v168h-91v-77h-134v234h169v91zM270 849l-6 -54h-60l-110 88l71 78z" />
    <glyph glyph-name="Eacute" unicode="&#xc9;" horiz-adv-x="456" 
d="M170 416h169v-91h-169v-234h134v77h91v-168h-316v628l38 23v7h-91v91h360v-177h-91v86h-125v-242zM175 797l-6 54l105 112l71 -78l-110 -88h-60z" />
    <glyph glyph-name="Ecircumflex" unicode="&#xca;" horiz-adv-x="456" 
d="M339 416h-169v242h125v-86h91v177h-360v-91h91v-7l-38 -23v-628h316v168h-91v-77h-134v234h169v91zM214 854l-86 -59l-45 55l103 81h60l103 -81l-46 -56l-84 60h-5z" />
    <glyph glyph-name="Edieresis" unicode="&#xcb;" horiz-adv-x="456" 
d="M170 416h169v-91h-169v-234h134v77h91v-168h-316v628l38 23v7h-91v91h360v-177h-91v86h-125v-242zM182 876v-79h-101v79h101zM267 876h100v-79h-100v79z" />
    <glyph glyph-name="egrave" unicode="&#xe8;" horiz-adv-x="451" 
d="M346 416h-181v242h216v91h-307v-749h321v91h-230v234h181v91zM289 851l-6 -54h-60l-110 88l71 78z" />
    <glyph glyph-name="eacute" unicode="&#xe9;" horiz-adv-x="451" 
d="M165 416h181v-91h-181v-234h230v-91h-321v749h307v-91h-216v-242zM182 797l-6 54l105 112l71 -78l-110 -88h-60z" />
    <glyph glyph-name="ecircumflex" unicode="&#xea;" horiz-adv-x="451" 
d="M346 416h-181v242h216v91h-307v-749h321v91h-230v234h181v91zM227 860l-86 -59l-45 55l103 81h60l103 -81l-46 -56l-84 60h-5z" />
    <glyph glyph-name="edieresis" unicode="&#xeb;" horiz-adv-x="451" 
d="M165 416h181v-91h-181v-234h230v-91h-321v749h307v-91h-216v-242zM187 879v-79h-101v79h101zM272 879h100v-79h-100v79z" />
    <glyph glyph-name="Igrave" unicode="&#xcc;" horiz-adv-x="292" 
d="M18 0h253v83h-81v584h70v83h-234v-83h111v-7l-38 -23v-554h-81v-83zM205 852l-6 -54h-60l-110 88l71 78z" />
    <glyph glyph-name="Iacute" unicode="&#xcd;" horiz-adv-x="292" 
d="M271 0h-253v83h81v554l38 23v7h-111v83h234v-83h-70v-584h81v-83zM91 797l-6 54l105 112l71 -78l-110 -88h-60z" />
    <glyph glyph-name="Icircumflex" unicode="&#xce;" horiz-adv-x="292" 
d="M18 0h253v83h-81v584h70v83h-234v-83h111v-7l-38 -23v-554h-81v-83zM142 860l-86 -59l-45 55l103 81h60l103 -81l-46 -56l-84 60h-5z" />
    <glyph glyph-name="Idieresis" unicode="&#xcf;" horiz-adv-x="292" 
d="M271 0h-253v83h81v554l38 23v7h-111v83h234v-83h-70v-584h81v-83zM102 878v-79h-101v79h101zM187 878h100v-79h-100v79z" />
    <glyph glyph-name="igrave" unicode="&#xec;" horiz-adv-x="236" 
d="M73 0h91v750h-91v-750zM171 848l-6 -54h-60l-110 88l71 78z" />
    <glyph glyph-name="iacute" unicode="&#xed;" horiz-adv-x="236" 
d="M164 0h-91v750h91v-750zM63 793l-6 54l105 112l71 -78l-110 -88h-60z" />
    <glyph glyph-name="icircumflex" unicode="&#xee;" horiz-adv-x="236" 
d="M73 0h91v750h-91v-750zM116 853l-86 -59l-45 55l103 81h60l103 -81l-46 -56l-84 60h-5z" />
    <glyph glyph-name="idieresis" unicode="&#xef;" horiz-adv-x="236" 
d="M164 0h-91v750h91v-750zM76 879v-79h-101v79h101zM161 879h100v-79h-100v79z" />
    <glyph glyph-name="Eth" unicode="&#xd0;" horiz-adv-x="499" 
d="M22 341v81h57v234h-54v91h293l112 -112v-522l-112 -113h-239v341h-57zM170 91h110l59 59v448l-59 58h-110v-234h69v-81h-69v-250z" />
    <glyph glyph-name="eth" unicode="&#xf0;" horiz-adv-x="499" 
d="M22 344v81h57v322h239l112 -112v-522l-112 -113h-239v344h-57zM170 91h110l59 59v448l-59 58h-110v-231h69v-81h-69v-253z" />
    <glyph glyph-name="Ntilde" unicode="&#xd1;" horiz-adv-x="512" 
d="M26 657v90h177l85 -268l82 -313h3l-20 318v263h89v-747h-97l-117 368l-68 245h-3l12 -253v-360h-89v627l38 23v7h-92zM381 861l-43 -58l-49 40l-95 -44l-78 63l44 57l44 -35l95 43z" />
    <glyph glyph-name="ntilde" unicode="&#xf1;" horiz-adv-x="504" 
d="M72 0v747h123l85 -268l77 -280h3l-17 285v263h91v-747h-97l-117 368l-65 221h-3l11 -229v-360h-91zM379 859l-43 -58l-49 40l-95 -44l-78 63l44 57l44 -35l95 43z" />
    <glyph glyph-name="agrave" unicode="&#xe0;" horiz-adv-x="443" 
d="M21 0l111 749h176l111 -749h-92l-29 195h-156l-29 -195h-92zM285 286l-56 372h-19l-55 -372h130zM274 851l-6 -54h-60l-110 88l71 78z" />
    <glyph glyph-name="aacute" unicode="&#xe1;" horiz-adv-x="443" 
d="M21 0l111 749h176l111 -749h-92l-29 195h-156l-29 -195h-92zM285 286l-56 372h-19l-55 -372h130zM172 797l-6 54l105 112l71 -78l-110 -88h-60z" />
    <glyph glyph-name="acircumflex" unicode="&#xe2;" horiz-adv-x="443" 
d="M21 0l111 749h176l111 -749h-92l-29 195h-156l-29 -195h-92zM285 286l-56 372h-19l-55 -372h130zM219 854l-86 -59l-45 55l103 81h60l103 -81l-46 -56l-84 60h-5z" />
    <glyph glyph-name="atilde" unicode="&#xe3;" horiz-adv-x="443" 
d="M21 0l111 749h176l111 -749h-92l-29 195h-156l-29 -195h-92zM285 286l-56 372h-19l-55 -372h130zM344 852l-43 -58l-49 40l-95 -44l-78 63l44 57l44 -35l95 43z" />
    <glyph glyph-name="adieresis" unicode="&#xe4;" horiz-adv-x="443" 
d="M21 0l111 749h176l111 -749h-92l-29 195h-156l-29 -195h-92zM285 286l-56 372h-19l-55 -372h130zM179 876v-79h-101v79h101zM264 876h100v-79h-100v79z" />
    <glyph glyph-name="aring" unicode="&#xe5;" horiz-adv-x="443" 
d="M21 0l111 749h176l111 -749h-92l-29 195h-156l-29 -195h-92zM285 286l-56 372h-19l-55 -372h130zM324 928v-79l-63 -66h-80l-64 66v79l64 62h79zM260 875v27l-25 24h-27l-27 -24v-27l27 -28h26z" />
    <glyph glyph-name="Ograve" unicode="&#xd2;" 
d="M439 117v529l-113 113h-143l-113 -113v-529l112 -120h144zM348 152l-61 -65h-66l-61 65v457l60 60h68l60 -60v-457zM304 861l-6 -54h-60l-110 88l71 78z" />
    <glyph glyph-name="Oacute" unicode="&#xd3;" 
d="M439 646v-529l-113 -120h-144l-112 120v529l113 113h143zM287 87l61 65v457l-60 60h-68l-60 -60v-457l61 -65h66zM222 803l-6 54l105 112l71 -78l-110 -88h-60z" />
    <glyph glyph-name="Ocircumflex" unicode="&#xd4;" 
d="M439 117v529l-113 113h-143l-113 -113v-529l112 -120h144zM348 152l-61 -65h-66l-61 65v457l60 60h68l60 -60v-457zM252 860l-86 -59l-45 55l103 81h60l103 -81l-46 -56l-84 60h-5z" />
    <glyph glyph-name="Otilde" unicode="&#xd5;" 
d="M439 646v-529l-113 -120h-144l-112 120v529l113 113h143zM287 87l61 65v457l-60 60h-68l-60 -60v-457l61 -65h66zM388 870l-43 -58l-49 40l-95 -44l-78 63l44 57l44 -35l95 43z" />
    <glyph glyph-name="Odieresis" unicode="&#xd6;" 
d="M439 646v-529l-113 -120h-144l-112 120v529l113 113h143zM287 87l61 65v457l-60 60h-68l-60 -60v-457l61 -65h66zM210 883v-79h-101v79h101zM295 883h100v-79h-100v79z" />
    <glyph glyph-name="ograve" unicode="&#xf2;" 
d="M439 117v529l-113 113h-143l-113 -113v-529l112 -120h144zM348 152l-61 -65h-66l-61 65v457l60 60h68l60 -60v-457zM314 861l-6 -54h-60l-110 88l71 78z" />
    <glyph glyph-name="oacute" unicode="&#xf3;" 
d="M439 646v-529l-113 -120h-144l-112 120v529l113 113h143zM287 87l61 65v457l-60 60h-68l-60 -60v-457l61 -65h66zM201 807l-6 54l105 112l71 -78l-110 -88h-60z" />
    <glyph glyph-name="ocircumflex" unicode="&#xf4;" 
d="M439 117v529l-113 113h-143l-113 -113v-529l112 -120h144zM348 152l-61 -65h-66l-61 65v457l60 60h68l60 -60v-457zM252 853l-86 -59l-45 55l103 81h60l103 -81l-46 -56l-84 60h-5z" />
    <glyph glyph-name="otilde" unicode="&#xf5;" 
d="M439 646v-529l-113 -120h-144l-112 120v529l113 113h143zM287 87l61 65v457l-60 60h-68l-60 -60v-457l61 -65h66zM386 861l-43 -58l-49 40l-95 -44l-78 63l44 57l44 -35l95 43z" />
    <glyph glyph-name="odieresis" unicode="&#xf6;" 
d="M439 646v-529l-113 -120h-144l-112 120v529l113 113h143zM287 87l61 65v457l-60 60h-68l-60 -60v-457l61 -65h66zM214 884v-79h-101v79h101zM299 884h100v-79h-100v79z" />
    <glyph glyph-name="Oslash" unicode="&#xd8;" 
d="M287 87l61 65v457l-60 60h-68l-60 -60v-457l61 -65h66zM439 646v-529l-113 -120h-139l-22 -60l-81 26l36 99l-50 55v529l113 113h137l23 60l81 -26l-36 -97z" />
    <glyph glyph-name="oslash" unicode="&#xf8;" 
d="M287 87l61 65v457l-60 60h-68l-60 -60v-457l61 -65h66zM439 646v-529l-113 -120h-139l-22 -60l-81 26l36 99l-50 55v529l113 113h137l23 60l81 -26l-36 -97z" />
    <glyph glyph-name="ugrave" unicode="&#xf9;" horiz-adv-x="500" 
d="M166 750h-91v-634l108 -120h141l107 120v634h-91v-600l-57 -63h-60l-57 63v600zM306 847l-6 -54h-60l-110 88l71 78z" />
    <glyph glyph-name="uacute" unicode="&#xfa;" horiz-adv-x="500" 
d="M75 750h91v-600l57 -63h60l57 63v600h91v-634l-107 -120h-141l-108 120v634zM212 793l-6 54l105 112l71 -78l-110 -88h-60z" />
    <glyph glyph-name="ucircumflex" unicode="&#xfb;" horiz-adv-x="500" 
d="M166 750h-91v-634l108 -120h141l107 120v634h-91v-600l-57 -63h-60l-57 63v600zM248 852l-86 -59l-45 55l103 81h60l103 -81l-46 -56l-84 60h-5z" />
    <glyph glyph-name="udieresis" unicode="&#xfc;" horiz-adv-x="500" 
d="M75 750h91v-600l57 -63h60l57 63v600h91v-634l-107 -120h-141l-108 120v634zM209 884v-79h-101v79h101zM294 884h100v-79h-100v79z" />
    <glyph glyph-name="Udieresis" unicode="&#xdc;" horiz-adv-x="505" 
d="M26 750h145v-600l57 -63h60l57 63v600h91v-634l-107 -120h-141l-108 120v521l38 23v7h-92v83zM216 882v-79h-101v79h101zM301 882h100v-79h-100v79z" />
    <glyph glyph-name="Ucircumflex" unicode="&#xdb;" horiz-adv-x="505" 
d="M171 750h-145v-83h92v-7l-38 -23v-521l108 -120h141l107 120v634h-91v-600l-57 -63h-60l-57 63v600zM252 857l-86 -59l-45 55l103 81h60l103 -81l-46 -56l-84 60h-5z" />
    <glyph glyph-name="Uacute" unicode="&#xda;" horiz-adv-x="505" 
d="M26 750h145v-600l57 -63h60l57 63v600h91v-634l-107 -120h-141l-108 120v521l38 23v7h-92v83zM216 799l-6 54l105 112l71 -78l-110 -88h-60z" />
    <glyph glyph-name="Ugrave" unicode="&#xd9;" horiz-adv-x="505" 
d="M171 750h-145v-83h92v-7l-38 -23v-521l108 -120h141l107 120v634h-91v-600l-57 -63h-60l-57 63v600zM317 857l-6 -54h-60l-110 88l71 78z" />
    <glyph glyph-name="Yacute" unicode="&#xdd;" horiz-adv-x="495" 
d="M247 387h6l61 201l57 162h96l-172 -472v-278h-91v278l-131 361l32 19v7h-99v85h124l58 -164zM210 797l-6 54l105 112l71 -78l-110 -88h-60z" />
    <glyph glyph-name="yacute" unicode="&#xfd;" horiz-adv-x="461" 
d="M275 278v-278h-91v278l-172 472h98l61 -174l59 -192l60 195l61 171h96zM198 793l-6 54l105 112l71 -78l-110 -88h-60z" />
    <glyph glyph-name="ydieresis" unicode="&#xff;" horiz-adv-x="461" 
d="M275 278v-278h-91v278l-172 472h98l61 -174l59 -192l60 195l61 171h96zM188 876v-79h-101v79h101zM273 876h100v-79h-100v79z" />
    <glyph glyph-name="Thorn" unicode="&#xde;" horiz-adv-x="469" 
d="M409 248l-115 -121h-129v-127h-91v749h91v-127h129l115 -121v-253zM165 218h90l62 66v181l-62 66h-90v-313z" />
    <glyph glyph-name="thorn" unicode="&#xfe;" horiz-adv-x="469" 
d="M409 248l-115 -121h-129v-127h-91v749h91v-127h129l115 -121v-253zM165 218h90l62 66v181l-62 66h-90v-313z" />
    <glyph glyph-name="Z" unicode="Z" horiz-adv-x="420" 
d="M391 164v-164h-355l-1 150l244 468l1 47h-147l-6 -87h-82v171h326l-1 -154l-244 -468v-43h176l7 80h82z" />
    <glyph glyph-name="afii10052" unicode="&#x403;" horiz-adv-x="427" 
d="M171 797l-6 53l102 109l70 -76l-108 -86h-58zM170 656v-656h-91v627l37 22v7h-90v90h359v-176h-89v86h-126z" />
    <glyph glyph-name="afii10100" unicode="&#x453;" horiz-adv-x="422" 
d="M165 656v-656h-91v746h306v-176h-89v86h-126zM183 797l-6 53l102 109l70 -76l-108 -86h-58z" />
    <glyph glyph-name="afii10058" unicode="&#x409;" horiz-adv-x="716" 
d="M502 412h-90v-321h91l61 61v194zM195 660h-84v89h301v-246h129l115 -121v-268l-116 -114h-219v660h-73l-94 -660h-139v84h58l78 541l44 28v7z" />
    <glyph glyph-name="afii10059" unicode="&#x40a;" horiz-adv-x="716" 
d="M502 354h-91v-263h92l61 61v136zM117 656h-90v91h144v-306h149v308h91v-304h130l115 -121v-210l-116 -114h-220v354h-149v-354h-91v627l37 22v7z" />
    <glyph glyph-name="afii10061" unicode="&#x40c;" horiz-adv-x="491" 
d="M204 797l-6 53l102 109l70 -76l-108 -86h-58zM170 747v-301h48l143 301h100l-164 -347l187 -400h-100l-166 355h-48v-355h-91v627l37 22v7h-91v91h145z" />
    <glyph glyph-name="afii10145" unicode="&#x40f;" horiz-adv-x="501" 
d="M117 656h-90v91h144v-660h169v661h91v-748h-127v-97h-91v97h-133v627l37 22v7z" />
    <glyph glyph-name="afii10106" unicode="&#x459;" horiz-adv-x="716" 
d="M502 412h-90v-321h91l61 61v194zM656 114l-116 -114h-219v660h-73l-94 -660h-139v84h58l95 665h244v-246h129l115 -121v-268z" />
    <glyph glyph-name="afii10107" unicode="&#x45a;" horiz-adv-x="709" 
d="M495 354h-91v-263h92l61 61v136zM649 114l-116 -114h-220v354h-149v-354h-91v747h91v-306h149v308h91v-304h130l115 -121v-210z" />
    <glyph glyph-name="afii10109" unicode="&#x45c;" horiz-adv-x="486" 
d="M165 747v-301h48l143 301h100l-164 -347l187 -400h-100l-166 355h-48v-355h-91v747h91zM204 797l-6 53l102 109l70 -76l-108 -86h-58z" />
    <glyph glyph-name="afii10193" unicode="&#x45f;" horiz-adv-x="494" 
d="M333 748h91v-748h-131v-97h-91v97h-129v748h91v-661h169v661z" />
    <glyph glyph-name="afii10062" unicode="&#x40e;" horiz-adv-x="482" 
d="M188 801l-63 58l60 67l35 -34h64l36 34l60 -67l-64 -58h-128zM258 390h-2l-64 188l-56 172h-121v-84h93v-6l-28 -21l129 -377l-82 -262h96l244 750h-96l-59 -171z" />
    <glyph glyph-name="afii10110" unicode="&#x45e;" horiz-adv-x="457" 
d="M234 390h-2l-64 188l-56 172h-99l172 -488l-82 -262h96l244 750h-96l-59 -171zM164 801l-63 58l60 67l35 -34h64l36 34l60 -67l-64 -58h-128z" />
    <glyph glyph-name="afii10057" unicode="&#x408;" horiz-adv-x="456" 
d="M126 276v-127l55 -65h58l55 65v487l37 22v7h-225v83h280v-633l-99 -115h-153l-99 115v161h91z" />
    <glyph glyph-name="afii10050" unicode="&#x490;" horiz-adv-x="409" 
d="M170 656v-656h-91v627l37 22v7h-90v90h276v61h83v-151h-215z" />
    <glyph glyph-name="afii10023" unicode="&#x401;" horiz-adv-x="456" 
d="M170 416h169v-91h-169v-234h134v77h91v-168h-316v628l38 23v7h-91v91h360v-177h-91v86h-125v-242zM182 876v-79h-101v79h101zM267 876h100v-79h-100v79z" />
    <glyph glyph-name="afii10053" unicode="&#x404;" horiz-adv-x="486" 
d="M339 529v77l-57 59h-65l-56 -59v-179h175v-87h-175v-190l57 -64h63l58 64v83l91 1v-118l-109 -121h-143l-108 121v526l109 114h142l109 -114v-113h-91z" />
    <glyph glyph-name="afii10056" unicode="&#x407;" horiz-adv-x="292" 
d="M271 0h-253v83h81v554l38 23v7h-111v83h234v-83h-70v-584h81v-83zM14 878h104v-79h-104v79zM162 878h104v-79h-104v79z" />
    <glyph glyph-name="afii10055" unicode="&#x406;" horiz-adv-x="308" 
d="M281 0h-253v83h81v555l35 22v7h-108v83h234v-83h-70v-584h81v-83z" />
    <glyph glyph-name="afii10103" unicode="&#x456;" horiz-adv-x="236" 
d="M164 0h-91v750h91v-750z" />
    <glyph glyph-name="afii10098" unicode="&#x491;" horiz-adv-x="404" 
d="M165 656v-656h-91v746h221v61h85v-151h-215z" />
    <glyph glyph-name="afii10071" unicode="&#x451;" horiz-adv-x="451" 
d="M165 416h181v-91h-181v-234h230v-91h-321v749h307v-91h-216v-242zM187 879v-79h-101v79h101zM272 879h100v-79h-100v79z" />
    <glyph glyph-name="afii10101" unicode="&#x454;" horiz-adv-x="486" 
d="M339 529v77l-57 59h-65l-56 -59v-179h175v-87h-175v-190l57 -64h63l58 64v83l91 1v-118l-109 -121h-143l-108 121v526l109 114h142l109 -114v-113h-91z" />
    <glyph glyph-name="afii10105" unicode="&#x458;" horiz-adv-x="456" 
d="M126 276v-127l55 -65h58l55 65v599h92v-633l-99 -115h-153l-99 115v161h91z" />
    <glyph glyph-name="afii10054" unicode="&#x405;" horiz-adv-x="483" 
d="M149 248v-101l59 -62h66l59 62v119l-269 188v188l107 112h140l107 -112v-115h-90v78l-56 59h-63l-55 -59v-104l268 -188v-202l-110 -116h-143l-110 116v137h90z" />
    <glyph glyph-name="afii10102" unicode="&#x455;" horiz-adv-x="483" 
d="M149 248v-101l59 -62h66l59 62v119l-269 188v188l107 112h140l107 -112v-115h-90v78l-56 59h-63l-55 -59v-104l268 -188v-202l-110 -116h-143l-110 116v137h90z" />
    <glyph glyph-name="afii10104" unicode="&#x457;" horiz-adv-x="236" 
d="M-9 879h104v-79h-104v79zM140 879h104v-79h-104v79zM164 0h-91v750h91v-750z" />
    <glyph glyph-name="afii10017" unicode="&#x410;" horiz-adv-x="460" 
d="M295 286l-56 372h-19l-55 -372h130zM83 658v91h235l111 -749h-92l-29 195h-156l-29 -195h-92l92 628l38 23v7h-78z" />
    <glyph glyph-name="afii10018" unicode="&#x411;" horiz-adv-x="485" 
d="M271 378h-106v-287h107l61 61v160zM111 659h-90v91h383v-167h-91v76h-148v-190h145l115 -121v-234l-116 -114h-235v630l37 22v7z" />
    <glyph glyph-name="afii10019" unicode="&#x412;" horiz-adv-x="499" 
d="M172 425h95l53 63v109l-58 58h-90v-230zM172 333v-241h110l58 58v120l-64 63h-104zM27 655v93h273l112 -113v-183l-55 -66l75 -74v-200l-112 -112h-240v625l38 23v7h-91z" />
    <glyph glyph-name="afii10020" unicode="&#x413;" horiz-adv-x="427" 
d="M170 656v-656h-91v627l37 22v7h-90v90h359v-176h-89v86h-126z" />
    <glyph glyph-name="afii10021" unicode="&#x414;" horiz-adv-x="540" 
d="M360 80v580h-90l-83 -580h173zM111 -75h-88v155h72l78 549l38 24v7h-78v89h318v-669h64v-155h-88v75h-316v-75z" />
    <glyph glyph-name="afii10022" unicode="&#x415;" horiz-adv-x="456" 
d="M170 416h169v-91h-169v-234h134v77h91v-168h-316v628l38 23v7h-91v91h360v-177h-91v86h-125v-242z" />
    <glyph glyph-name="afii10024" unicode="&#x416;" horiz-adv-x="710" 
d="M399 441h30l135 309h100l-156 -350l182 -400h-100l-161 360h-30v-360h-91v360h-30l-161 -360h-100l182 400l-156 350h100l135 -309h30v309h91v-309z" />
    <glyph glyph-name="afii10025" unicode="&#x417;" horiz-adv-x="473" 
d="M166 357v88h76l53 65v91l-50 58h-51l-48 -58v-44h-92v82l102 113h127l104 -113v-165l-55 -66l75 -74v-221l-109 -115h-142l-108 115v135h91v-99l56 -62h63l57 62v143l-64 65h-85z" />
    <glyph glyph-name="afii10026" unicode="&#x418;" horiz-adv-x="512" 
d="M117 656h-90v91h144v-263l-14 -301h3l74 296l85 268h123v-747h-91v360l17 260h-3l-71 -252l-117 -368h-97v627l37 22v7z" />
    <glyph glyph-name="afii10027" unicode="&#x419;" horiz-adv-x="512" 
d="M199 804l-57 62l50 55l38 -32h61l40 32l48 -55l-56 -62h-124zM117 656h-90v91h144v-263l-14 -301h3l74 296l85 268h123v-747h-91v360l17 260h-3l-71 -252l-117 -368h-97v627l37 22v7z" />
    <glyph glyph-name="afii10028" unicode="&#x41a;" horiz-adv-x="491" 
d="M170 747v-301h48l143 301h100l-164 -347l187 -400h-100l-166 355h-48v-355h-91v626l38 23v7h-92v91h145z" />
    <glyph glyph-name="afii10029" unicode="&#x41b;" horiz-adv-x="498" 
d="M192 660h-81v89h318v-749h-91v660h-90l-94 -660h-139v84h58l78 545l41 24v7z" />
    <glyph glyph-name="afii10030" unicode="&#x41c;" horiz-adv-x="650" 
d="M492 1v659h-13l-90 -591h-115l-93 591h-13v-659h-89v630l36 22v7h-90v89h235l43 -293l26 -265h3l25 261l43 297h181v-748h-89z" />
    <glyph glyph-name="afii10031" unicode="&#x41d;" horiz-adv-x="501" 
d="M27 656v91h144v-330h169v330h91v-747h-91v330h-169v-330h-91v627l37 22v7h-90z" />
    <glyph glyph-name="afii10032" unicode="&#x41e;" 
d="M439 646v-529l-113 -120h-144l-112 120v529l113 113h143zM287 87l61 65v457l-60 60h-68l-60 -60v-457l61 -65h66z" />
    <glyph glyph-name="afii10033" unicode="&#x41f;" horiz-adv-x="501" 
d="M117 664h-90v84h404v-748h-91v661h-169v-661h-91v635l37 22v7z" />
    <glyph glyph-name="afii10034" unicode="&#x420;" horiz-adv-x="490" 
d="M170 337h106l62 66v194l-61 61h-107v-321zM314 749l116 -114v-268l-115 -121h-145v-246h-91v631l38 23v7h-92v88h289z" />
    <glyph glyph-name="afii10035" unicode="&#x421;" horiz-adv-x="492" 
d="M339 529v77l-57 59h-65l-56 -59v-456l57 -64h63l58 64v83l91 1v-118l-109 -121h-143l-108 121v526l109 114h142l109 -114v-113h-91z" />
    <glyph glyph-name="afii10036" unicode="&#x422;" horiz-adv-x="460" 
d="M180 0v668h-78v-79h-81v161h411v-161h-81v79h-80v-668h-91z" />
    <glyph glyph-name="afii10037" unicode="&#x423;" horiz-adv-x="482" 
d="M256 382h2l54 197l59 171h96l-244 -750h-96l82 262l-129 378l31 19v7h-97v84h122l56 -172z" />
    <glyph glyph-name="afii10038" unicode="&#x424;" horiz-adv-x="636" 
d="M363 0h-91v66h-91l-113 120v379l113 113h91v72h91v-72h90l113 -113v-379l-113 -120h-90v-66zM363 150h51l61 67v314l-60 60h-52v-441zM219 591l-60 -60v-314l61 -67h52v441h-53z" />
    <glyph glyph-name="afii10039" unicode="&#x425;" horiz-adv-x="451" 
d="M347 0l-118 357h-4l-120 -357h-96l144 409l-79 227l31 21v7h-95v85h121l94 -287h4l93 287h95l-115 -340l141 -409h-96z" />
    <glyph glyph-name="afii10040" unicode="&#x426;" horiz-adv-x="511" 
d="M116 656h-90v91h144v-660h169v661h91v-664h54v-159h-86v75h-319v627l37 22v7z" />
    <glyph glyph-name="afii10041" unicode="&#x427;" horiz-adv-x="486" 
d="M115 656h-90v91h144v-344l62 -66h94v412h91v-749h-91v246h-133l-114 121v260l37 22v7z" />
    <glyph glyph-name="afii10042" unicode="&#x428;" horiz-adv-x="701" 
d="M117 656h-90v91h144v-661h139v662h91v-662h139v662h91v-748h-551v627l37 22v7z" />
    <glyph glyph-name="afii10043" unicode="&#x429;" horiz-adv-x="710" 
d="M117 656h-90v91h144v-661h139v662h91v-662h139v662h91v-664h54v-159h-86v75h-519v627l37 22v7z" />
    <glyph glyph-name="afii10044" unicode="&#x42a;" horiz-adv-x="505" 
d="M291 412h-106v-321h107l61 61v194zM130 656h-121v91h176v-244h145l115 -121v-268l-116 -114h-235v627l36 22v7z" />
    <glyph glyph-name="afii10045" unicode="&#x42b;" horiz-adv-x="685" 
d="M421 114l-116 -114h-235v749h91v-246h145l115 -121v-268zM267 412h-106v-321h107l61 61v194zM615 0h-91v750h91v-750z" />
    <glyph glyph-name="afii10046" unicode="&#x42c;" horiz-adv-x="481" 
d="M421 114l-116 -114h-235v749h91v-246h145l115 -121v-268zM267 412h-106v-321h107l61 61v194z" />
    <glyph glyph-name="afii10047" unicode="&#x42d;" horiz-adv-x="486" 
d="M147 606v-77h-91v113l109 114h142l109 -114v-526l-108 -121h-143l-109 121v118l91 -1v-83l58 -64h63l57 64v190h-175v87h175v179l-56 59h-65z" />
    <glyph glyph-name="afii10048" unicode="&#x42e;" horiz-adv-x="701" 
d="M479 87l61 65v457l-60 60h-60l-60 -60v-457l61 -65h58zM631 646v-529l-113 -120h-136l-112 120v213h-99v-330h-91v627l37 22v7h-90v91h144v-330h99v229l113 113h135z" />
    <glyph glyph-name="afii10049" unicode="&#x42f;" horiz-adv-x="477" 
d="M312 0v252h-79l-117 -252h-100l133 287l-81 87v259l115 116h275v-92h-55v-657h-91zM348 657h-128l-61 -61v-186l62 -67h91v285l36 22v7z" />
    <glyph glyph-name="afii10065" unicode="&#x430;" horiz-adv-x="443" 
d="M21 0l111 749h176l111 -749h-92l-29 195h-156l-29 -195h-92zM285 286l-56 372h-19l-55 -372h130z" />
    <glyph glyph-name="afii10066" unicode="&#x431;" horiz-adv-x="485" 
d="M74 0v750h327v-91h-236v-190h145l115 -121v-234l-116 -114h-235zM271 378h-106v-287h107l61 61v160z" />
    <glyph glyph-name="afii10067" unicode="&#x432;" horiz-adv-x="493" 
d="M74 0v748h220l112 -113v-183l-55 -66l75 -74v-200l-112 -112h-240zM166 425h95l53 63v109l-58 58h-90v-230zM166 333v-241h110l58 58v120l-64 63h-104z" />
    <glyph glyph-name="afii10068" unicode="&#x433;" horiz-adv-x="404" 
d="M165 656v-656h-91v746h306v-90h-215z" />
    <glyph glyph-name="afii10069" unicode="&#x434;" horiz-adv-x="540" 
d="M111 -75h-88v155h72l95 669h261v-669h64v-155h-88v75h-316v-75zM360 80v580h-90l-83 -580h173z" />
    <glyph glyph-name="afii10070" unicode="&#x435;" horiz-adv-x="451" 
d="M165 416h181v-91h-181v-234h230v-91h-321v749h307v-91h-216v-242z" />
    <glyph glyph-name="afii10072" unicode="&#x436;" horiz-adv-x="710" 
d="M399 446h30l135 304h100l-156 -350l182 -400h-100l-161 355h-30v-355h-91v355h-30l-161 -355h-100l182 400l-156 350h100l135 -304h30v304h91v-304z" />
    <glyph glyph-name="afii10073" unicode="&#x437;" horiz-adv-x="473" 
d="M166 355v92h76l53 63v91l-50 58h-51l-48 -58v-44h-92v82l102 113h127l104 -113v-165l-55 -66l75 -74v-221l-109 -115h-142l-108 115v135h91v-99l56 -60h63l57 60v143l-64 63h-85z" />
    <glyph glyph-name="afii10074" unicode="&#x438;" horiz-adv-x="506" 
d="M171 0h-97v747h91v-263l-14 -314h3l74 309l85 268h123v-747h-91v360l15 269h-3l-69 -261z" />
    <glyph glyph-name="afii10075" unicode="&#x439;" horiz-adv-x="506" 
d="M171 0h-97v747h91v-263l-14 -314h3l74 309l85 268h123v-747h-91v360l15 269h-3l-69 -261zM191 804l-57 62l50 55l38 -32h61l40 32l48 -55l-56 -62h-124z" />
    <glyph glyph-name="afii10076" unicode="&#x43a;" horiz-adv-x="486" 
d="M165 747v-301h48l143 301h100l-164 -347l187 -400h-100l-166 355h-48v-355h-91v747h91z" />
    <glyph glyph-name="afii10077" unicode="&#x43b;" horiz-adv-x="498" 
d="M73 84l96 665h260v-749h-91v660h-90l-94 -660h-139v84h58z" />
    <glyph glyph-name="afii10078" unicode="&#x43c;" horiz-adv-x="644" 
d="M484 1v659h-11l-90 -602h-115l-93 602h-11v-659h-91v748h181l42 -293l27 -276h3l26 272l42 297h181v-748h-91z" />
    <glyph glyph-name="afii10079" unicode="&#x43d;" horiz-adv-x="496" 
d="M166 0h-91v747h91v-330h169v330h91v-747h-91v330h-169v-330z" />
    <glyph glyph-name="afii10080" unicode="&#x43e;" 
d="M439 646v-529l-113 -120h-144l-112 120v529l113 113h143zM287 87l61 65v457l-60 60h-68l-60 -60v-457l61 -65h66z" />
    <glyph glyph-name="afii10081" unicode="&#x43f;" horiz-adv-x="494" 
d="M164 0h-91v748h351v-748h-91v661h-169v-661z" />
    <glyph glyph-name="afii10082" unicode="&#x440;" horiz-adv-x="485" 
d="M309 749l116 -114v-268l-115 -121h-145v-246h-91v749h235zM165 337h106l62 66v194l-61 61h-107v-321z" />
    <glyph glyph-name="afii10083" unicode="&#x441;" horiz-adv-x="492" 
d="M339 529v77l-57 59h-65l-56 -59v-456l57 -64h63l58 64v83l91 1v-118l-109 -121h-143l-108 121v526l109 114h142l109 -114v-113h-91z" />
    <glyph glyph-name="afii10084" unicode="&#x442;" horiz-adv-x="392" 
d="M145 0v668h-132v82h356v-82h-133v-668h-91z" />
    <glyph glyph-name="afii10085" unicode="&#x443;" horiz-adv-x="457" 
d="M232 390h2l54 189l59 171h96l-244 -750h-96l82 262l-172 488h99l56 -172z" />
    <glyph glyph-name="afii10086" unicode="&#x444;" horiz-adv-x="636" 
d="M363 0h-91v66h-91l-113 120v379l113 113h91v72h91v-72h90l113 -113v-379l-113 -120h-90v-66zM363 156h51l61 65v307l-60 60h-52v-432zM219 588l-60 -60v-307l61 -65h52v432h-53z" />
    <glyph glyph-name="afii10087" unicode="&#x445;" horiz-adv-x="447" 
d="M343 0l-118 354h-4l-120 -354h-96l144 409l-119 340h97l94 -284h4l93 284h95l-115 -340l141 -409h-96z" />
    <glyph glyph-name="afii10088" unicode="&#x446;" horiz-adv-x="503" 
d="M392 0h-319v747h91v-660h169v661h91v-664h54v-159h-86v75z" />
    <glyph glyph-name="afii10089" unicode="&#x447;" horiz-adv-x="467" 
d="M306 337v412h91v-749h-91v246h-133l-114 121v380h91v-344l62 -66h94z" />
    <glyph glyph-name="afii10090" unicode="&#x448;" horiz-adv-x="695" 
d="M74 0v747h91v-661h139v662h91v-662h139v662h91v-748h-551z" />
    <glyph glyph-name="afii10091" unicode="&#x449;" horiz-adv-x="704" 
d="M395 748v-662h139v662h91v-664h54v-159h-86v75h-519v747h91v-661h139v662h91z" />
    <glyph glyph-name="afii10092" unicode="&#x44a;" horiz-adv-x="505" 
d="M329 0h-235v656h-85v91h176v-244h145l115 -121v-268zM291 412h-106v-321h107l61 61v194z" />
    <glyph glyph-name="afii10093" unicode="&#x44b;" horiz-adv-x="685" 
d="M421 114l-116 -114h-235v749h91v-246h145l115 -121v-268zM267 412h-106v-321h107l61 61v194zM615 0h-91v750h91v-750z" />
    <glyph glyph-name="afii10094" unicode="&#x44c;" horiz-adv-x="481" 
d="M421 114l-116 -114h-235v749h91v-246h145l115 -121v-268zM267 412h-106v-321h107l61 61v194z" />
    <glyph glyph-name="afii10095" unicode="&#x44d;" horiz-adv-x="486" 
d="M147 606v-77h-91v113l109 114h142l109 -114v-526l-108 -121h-143l-109 121v118l91 -1v-83l58 -64h63l57 64v190h-175v87h175v179l-56 59h-65z" />
    <glyph glyph-name="afii10096" unicode="&#x44e;" horiz-adv-x="695" 
d="M473 87l61 65v457l-60 60h-60l-60 -60v-457l61 -65h58zM625 646v-529l-113 -120h-136l-112 120v213h-99v-330h-91v747h91v-330h99v229l113 113h135z" />
    <glyph glyph-name="afii10097" unicode="&#x44f;" horiz-adv-x="473" 
d="M312 343v314h-92l-61 -61v-186l62 -67h91zM312 0v252h-79l-117 -252h-100l133 287l-81 87v259l115 116h220v-749h-91z" />
    </font>
</defs>
</svg>
